<svg xmlns="http://www.w3.org/2000/svg" viewBox="0 0 45 45"><defs><style>.cls-1{fill:#50b848;}.cls-2{fill:#10a3c8;}</style></defs><g id="Layer_2" data-name="Layer 2"><g id="Logo"><path class="cls-1" d="M11.1,20.1c1.4-.7,2.2-1.2,2.7-3.9l2.6-9.4a.92.92,0,0,1,1-.7,1.64,1.64,0,0,1,1.2.7l2.1,11.5a2.15,2.15,0,0,0,4.2,0l2-11.5c.1-.4.8-.7,1.2-.7.6,0,.9.3.9.7l2.6,9.4c.5,2.7,1.3,3.2,2.7,3.9,1.9,1,7.5,1,10.7,1a22.55,22.55,0,0,0-45,0C3.5,21.1,9.3,21.1,11.1,20.1Z"/><path class="cls-2" d="M34.2,24.9c-1.4.7-2.2,1.2-2.7,3.9l-2.3,9.4A1.24,1.24,0,0,1,28,39a1.35,1.35,0,0,1-1.2-.8l-2-11.6a2.12,2.12,0,0,0-4.2,0L18.5,38.2c-.1.4-.8.7-1.2.8a1.13,1.13,0,0,1-1.2-.8l-2.3-9.4c-.5-2.7-1.3-3.2-2.7-3.9-1.8-1-7.5-1-11.1-1a22.5,22.5,0,0,0,44.9.2C41.7,24.1,36.1,23.8,34.2,24.9Z"/></g></g></svg>