<svg id="Logo" xmlns="http://www.w3.org/2000/svg" xmlns:xlink="http://www.w3.org/1999/xlink" viewBox="0 0 360 117.11"><defs><style>.cls-1{fill:none;}.cls-2{clip-path:url(#clip-path);}.cls-3{fill:#50b848;}.cls-4{fill:#10a3c8;}.cls-5{fill:#3e3935;}</style><clipPath id="clip-path"><rect class="cls-1" y="0.11" width="360" height="117"/></clipPath></defs><g class="cls-2"><path class="cls-3" d="M47.1,57.81c1.4-.7,2.2-1.2,2.7-3.9l2.6-9.4a.92.92,0,0,1,1-.7,1.64,1.64,0,0,1,1.2.7L56.7,56a2.15,2.15,0,0,0,4.2,0l2-11.5c.1-.4.8-.7,1.2-.7.6,0,.9.3.9.7l2.6,9.4c.5,2.7,1.3,3.2,2.7,3.9,1.9,1,7.5,1,10.7,1a22.55,22.55,0,0,0-45,0C39.5,58.81,45.3,58.81,47.1,57.81Z"/><path class="cls-4" d="M70.2,62.61c-1.4.7-2.2,1.2-2.7,3.9l-2.3,9.4a1.24,1.24,0,0,1-1.2.8,1.35,1.35,0,0,1-1.2-.8l-2-11.6a2.12,2.12,0,0,0-4.2,0l-2.1,11.6c-.1.4-.8.7-1.2.8a1.13,1.13,0,0,1-1.2-.8l-2.3-9.4c-.5-2.7-1.3-3.2-2.7-3.9-1.8-1-7.5-1-11.1-1a22.5,22.5,0,0,0,44.9.2C77.7,61.81,72.1,61.51,70.2,62.61Z"/><path class="cls-5" d="M112.3,40.81c8.2,0,12.1,4.8,12.1,11,0,4.3-1.9,7.2-4.9,8.4,3.1,1.3,4.9,4.3,4.9,8.4,0,6.2-3.9,11-12.1,11H95.5V40.81Zm-.3,9.5h-7v5.3h6.8c1.9,0,3.1-1,3.1-2.7C114.9,51.41,114,50.31,112,50.31ZM111.8,65H105v5.3h7c2.1,0,2.9-1.1,2.9-2.6C114.9,65.91,113.7,65,111.8,65Z"/><path class="cls-5" d="M146.2,40.81A20.54,20.54,0,0,1,160.5,46l-4.6,8.6a12.57,12.57,0,0,0-9.7-4.4c-5.9,0-10.1,4.1-10.1,10s4.2,10,10.1,10a13.06,13.06,0,0,0,10.3-4.9l4.8,8.7a21.53,21.53,0,0,1-15,5.7c-11.3,0-19.7-8.4-19.7-19.5A19.15,19.15,0,0,1,146.2,40.81Z"/><path class="cls-5" d="M205.3,40.81v38.9h-9.4V65h-14v14.7h-9.5V40.81h9.5v14.7h14V40.81Z"/><path class="cls-5" d="M213.7,88.51l5.7-12.9L207.7,52h10.4l6,13.2L229.9,52h9.4L223,88.51Z"/><path class="cls-5" d="M268.4,40.81v38.9h-8.9v-3.8a10.63,10.63,0,0,1-8.9,4.5c-6.4,0-12.2-4.9-12.2-14.6s5.7-14.6,12-14.6a10.58,10.58,0,0,1,9.1,4.7V40.81Zm-20.9,25c0,3.7,2.8,5.8,6.1,5.8a5.81,5.81,0,0,0,6.1-5.8c0-3.7-2.8-5.8-6.1-5.8S247.5,62.21,247.5,65.81Z"/><path class="cls-5" d="M289.7,51.31a11,11,0,0,1,2.7.4v9.6a10.46,10.46,0,0,0-3.6-.6c-4,0-6.3,1.8-6.3,6.7v12.3h-8.9V51.91h8.6v4.8C283.4,53.41,285.8,51.31,289.7,51.31Z"/><path class="cls-5" d="M308.8,51.31c8.7,0,15.2,5.7,15.2,14.6s-6.5,14.6-15.2,14.6-15.2-5.7-15.2-14.6S300.2,51.31,308.8,51.31Zm0,8.7a5.81,5.81,0,0,0-6.1,5.8c0,3.7,2.8,5.8,6.1,5.8a5.81,5.81,0,1,0,0-11.6Z"/></g><rect id="_Slice_" data-name="&lt;Slice&gt;" class="cls-1" y="117" width="360" height="0.11"/><rect id="_Slice_2" data-name="&lt;Slice&gt;" class="cls-1" y="0.11" width="360" height="116.89"/><rect id="_Slice_3" data-name="&lt;Slice&gt;" class="cls-1" width="360" height="0.11"/><rect class="cls-1" width="360" height="117"/></svg>